<?xml version="1.0" standalone="no"?>
<!DOCTYPE svg PUBLIC "-//W3C//DTD SVG 20010904//EN"
 "http://www.w3.org/TR/2001/REC-SVG-20010904/DTD/svg10.dtd">
<svg version="1.0" xmlns="http://www.w3.org/2000/svg"
 width="1280.000000pt" height="640.000000pt" viewBox="0 0 1280.000000 640.000000"
 preserveAspectRatio="xMidYMid meet">
<g transform="translate(0.000000,640.000000) scale(0.100000,-0.100000)"
fill="#000000" stroke="none">
<path d="M690 4953 c-214 -21 -409 -74 -448 -122 -54 -68 -129 -275 -204 -561
-44 -171 -45 -205 -8 -285 53 -114 268 -281 585 -456 83 -45 213 -122 291
-170 174 -110 244 -143 365 -173 187 -48 356 -69 909 -116 713 -61 903 -89
1165 -175 202 -66 369 -145 559 -265 226 -143 268 -149 430 -66 206 106 262
101 523 -41 63 -34 79 -28 102 39 20 57 37 78 65 78 36 0 170 -64 263 -125
115 -76 318 -279 397 -398 73 -110 98 -182 131 -377 32 -193 41 -228 63 -234
51 -15 187 -38 273 -46 99 -10 1117 -3 3289 21 1115 12 1990 8 2210 -11 74 -7
236 -12 360 -13 363 -2 472 28 620 169 79 75 120 139 156 241 17 51 17 54 0
110 -91 288 -323 522 -711 716 -304 151 -428 181 -1045 247 -107 11 -854 115
-1660 230 -1737 248 -2331 329 -2950 400 -146 17 -282 33 -302 36 l-38 6 0
-124 c0 -321 -49 -677 -95 -694 -9 -4 -86 48 -187 124 -261 196 -368 259 -530
317 -43 15 -82 33 -88 41 -8 9 -7 29 5 72 23 82 14 97 -62 105 -32 3 -99 21
-150 41 -66 26 -108 36 -147 36 -61 0 -86 7 -86 24 0 6 -12 36 -26 66 -74 160
-196 224 -475 250 -379 35 -463 51 -648 125 -151 61 -230 102 -353 182 -140
90 -208 122 -383 183 -82 29 -204 77 -270 107 -451 206 -608 269 -840 336
-378 110 -822 173 -1055 150z"/>
</g>
</svg>
