<?xml version="1.0" standalone="no"?>
<!DOCTYPE svg PUBLIC "-//W3C//DTD SVG 20010904//EN"
 "http://www.w3.org/TR/2001/REC-SVG-20010904/DTD/svg10.dtd">
<svg version="1.0" xmlns="http://www.w3.org/2000/svg"
 width="1029.000000pt" height="1280.000000pt" viewBox="0 0 1029.000000 1280.000000"
 preserveAspectRatio="xMidYMid meet">
<g transform="translate(0.000000,1280.000000) scale(0.100000,-0.100000)"
fill="#000000" stroke="none">
<path d="M1655 12792 c-5 -5 -82 -26 -170 -46 -176 -41 -169 -38 -306 -143
-73 -55 -144 -96 -295 -169 -110 -52 -211 -107 -226 -121 l-26 -25 -249 9
-248 8 -29 -30 c-34 -35 -59 -88 -80 -168 -8 -32 -18 -62 -21 -67 -9 -15 56
-87 112 -125 26 -17 120 -58 208 -90 88 -32 166 -63 173 -68 7 -6 12 -35 13
-76 0 -90 22 -138 104 -227 39 -42 108 -125 155 -184 47 -60 170 -204 273
-322 l188 -214 900 -237 c851 -224 902 -238 929 -267 17 -19 38 -30 54 -30 15
0 52 -11 84 -24 31 -13 127 -53 212 -89 341 -143 930 -432 930 -457 0 -5 7
-60 16 -122 20 -135 23 -435 6 -587 -20 -177 -59 -337 -141 -583 l-79 -237 14
-50 c8 -27 20 -54 27 -59 19 -15 376 -131 447 -145 l65 -12 24 -53 25 -52 60
0 c58 0 62 -2 142 -62 81 -61 84 -66 125 -158 39 -86 44 -106 53 -215 9 -114
7 -139 -39 -500 -38 -309 -61 -446 -121 -735 -72 -350 -73 -358 -84 -580 -6
-124 -19 -355 -30 -515 -12 -176 -20 -396 -20 -560 l0 -270 -44 -65 -43 -65
-478 -175 -477 -175 -113 -82 c-91 -67 -121 -96 -162 -155 -49 -72 -50 -75
-57 -168 -16 -221 -27 -360 -48 -615 -12 -148 -22 -297 -22 -330 -1 -97 33
-577 43 -615 5 -19 14 -91 20 -160 5 -69 24 -305 42 -524 l33 -399 73 -122
c58 -98 78 -125 105 -136 18 -7 101 -58 183 -113 248 -164 342 -196 663 -222
161 -13 223 -14 337 -5 77 6 325 18 550 27 324 12 428 19 497 35 52 11 125 19
180 19 51 0 219 11 373 25 154 13 377 31 495 40 118 8 288 21 377 27 l163 12
86 50 87 51 49 165 49 165 29 330 c21 253 31 445 40 820 6 270 13 500 16 512
2 12 13 24 24 28 18 6 20 17 22 128 l3 122 45 5 c44 5 153 63 180 95 17 21 7
218 -13 267 -8 20 -56 97 -106 172 l-91 136 -64 0 c-40 0 -68 5 -74 13 -13 15
-82 346 -172 815 -32 172 -61 316 -63 320 -3 4 -1 117 4 252 6 195 3 369 -16
855 -32 815 -29 764 -86 1315 -66 640 -62 611 -108 874 -38 215 -41 242 -41
422 l0 192 117 163 c102 143 132 178 245 279 l128 115 148 43 c143 42 150 42
257 37 511 -24 1168 -12 1196 22 6 7 23 13 37 13 51 0 174 91 353 262 l176
167 101 268 101 268 46 270 c25 149 50 282 56 296 7 18 7 33 0 50 -6 13 -29
105 -52 204 -58 254 -79 314 -160 455 -131 229 -124 222 -291 312 -141 76
-167 85 -700 259 -536 174 -1113 349 -1154 349 -11 0 -67 -16 -124 -35 -64
-22 -123 -35 -154 -35 -92 0 -471 32 -480 41 -5 5 3 38 22 81 l30 73 -276 5
-277 5 -224 108 c-162 78 -226 104 -232 96 -4 -7 -11 -39 -14 -72 -5 -38 -12
-60 -22 -64 -27 -11 -301 108 -379 164 l-73 52 -383 40 -383 40 -687 7 -686 7
-13 -62 c-12 -60 -25 -83 -38 -64 -3 6 -413 69 -911 141 -498 72 -916 134
-930 137 -14 3 -29 2 -35 -3z m2585 -2761 c0 -9 -44 -41 -56 -41 -4 0 3 11 16
25 24 26 40 32 40 16z"/>
</g>
</svg>
